<svg width="256" height="256" xmlns="http://www.w3.org/2000/svg"><g fill="none" fill-rule="evenodd"><circle fill="#333" cx="128" cy="128" r="86.507"/><path d="M114.287.571h27.426c2.007 0 3.344 1.338 4.013 2.676l6.69 25.419c10.033 2.676 19.398 6.02 28.094 11.371l22.743-12.709c1.338-.669 3.345-.669 4.683.669l19.398 19.399c1.338 1.337 2.007 3.344.669 4.682l-12.04 23.412c4.682 8.027 8.695 17.392 11.371 27.426l24.75 7.358c2.007.669 3.345 2.006 3.345 4.013v27.426c0 2.007-1.338 3.344-3.345 4.013l-24.75 6.69c-2.676 10.033-6.69 19.398-11.371 28.094l12.04 22.743c1.338 1.338.669 3.345-.669 4.683l-19.398 19.398c-1.338 1.338-3.345 2.007-4.683.669l-22.743-12.04c-8.696 4.682-18.06 8.695-28.095 11.371l-6.689 24.75c-.669 2.007-2.006 3.345-4.013 3.345h-27.426c-2.007 0-3.344-1.338-4.013-3.345l-7.358-24.75c-10.034-2.676-19.399-6.69-27.426-11.371l-23.412 12.04c-1.338 1.338-3.345.669-4.682-.669l-19.399-19.398c-1.338-1.338-1.338-3.345-.669-4.683l12.71-22.743c-5.352-8.696-8.696-18.06-11.372-28.095l-25.419-6.689c-1.338-.669-2.676-2.006-2.676-4.013v-27.426c0-2.007 1.338-3.344 2.676-4.013l25.419-7.358c2.676-10.034 6.02-19.399 11.371-27.426L27.328 52.078c-.669-1.338-.669-3.345.669-4.682l19.399-19.399c1.337-1.338 3.344-1.338 4.682-.669l23.412 12.71c8.027-5.352 17.392-8.696 27.426-11.372l7.358-25.419c.669-1.338 2.006-2.676 4.013-2.676zm13.379 44.818c46.155 0 82.945 36.79 82.945 82.277 0 46.155-36.79 82.945-82.945 82.945-45.487 0-82.277-36.79-82.277-82.945 0-45.487 36.79-82.277 82.277-82.277z" fill="#333"/><path d="M124.065 157.777l-16.35-9.343c-.723-.417-1.31-.075-1.31.76V170.2h-.003c0 5.54 2.95 6.632 6.557 2.427l11.378-13.27c.454-.526.33-1.235-.272-1.579z" fill="#FFED00"/><path d="M168.037 88.778l-96.599 32.2c-5.257 1.752-5.621 5.433-.811 8.184l25.734 14.705c.604.344 1.555.3 2.125-.099l51.157-35.78c2.85-1.992 3.08-1.708.512.639l-43.307 39.576c-.616.565-.528 1.354.197 1.768l37.51 21.435c3.006 1.718 6.244.4 7.195-2.929l21.378-74.821c1.142-3.997-1.151-6.191-5.09-4.878z" fill="#FFED00"/></g></svg>