<svg width="217" height="217" viewBox="0 0 217 217" xmlns="http://www.w3.org/2000/svg"><g fill="none" fill-rule="evenodd"><circle fill="#FFED00" cx="108.5" cy="108.5" r="73.328"/><path d="M96.876.484h23.248c1.7 0 2.835 1.134 3.402 2.268l5.67 21.547c8.505 2.268 16.443 5.103 23.814 9.639l19.279-10.773c1.134-.567 2.835-.567 3.969.567L192.7 40.175c1.134 1.134 1.701 2.835.567 3.97L183.062 63.99c3.969 6.804 7.371 14.742 9.64 23.247l20.979 6.237c1.7.567 2.835 1.701 2.835 3.402v23.248c0 1.7-1.134 2.835-2.835 3.402l-20.98 5.67c-2.268 8.505-5.67 16.443-9.639 23.814l10.206 19.279c1.134 1.134.567 2.835-.567 3.969L176.258 192.7c-1.134 1.134-2.835 1.701-3.97.567l-19.278-10.206c-7.37 3.969-15.309 7.371-23.814 9.64l-5.67 20.979c-.567 1.7-1.701 2.835-3.402 2.835H96.876c-1.7 0-2.835-1.134-3.402-2.835l-6.237-20.98c-8.505-2.268-16.443-5.67-23.247-9.639l-19.846 10.206c-1.134 1.134-2.835.567-3.969-.567l-16.443-16.443c-1.134-1.134-1.134-2.835-.567-3.97l10.773-19.278c-4.536-7.37-7.371-15.309-9.64-23.814l-21.546-5.67c-1.134-.567-2.268-1.701-2.268-3.402V96.876c0-1.7 1.134-2.835 2.268-3.402L24.3 87.237c2.268-8.505 5.103-16.443 9.639-23.247L23.165 44.144c-.567-1.134-.567-2.835.567-3.969l16.443-16.443c1.134-1.134 2.835-1.134 3.97-.567L63.99 33.938c6.804-4.536 14.742-7.371 23.247-9.64l6.237-21.546c.567-1.134 1.701-2.268 3.402-2.268zm11.34 37.99c39.124 0 70.31 31.186 70.31 69.742 0 39.124-31.186 70.31-70.31 70.31-38.556 0-69.742-31.186-69.742-70.31 0-38.556 31.186-69.742 69.742-69.742z" fill="#FFED00"/><path d="M105.164 133.74l-13.859-7.92c-.613-.352-1.11-.062-1.11.646v17.804h-.003c0 4.696 2.501 5.622 5.558 2.058l9.645-11.248c.385-.447.28-1.048-.23-1.34z" fill="#000"/><path d="M142.438 75.253l-81.883 27.294c-4.456 1.486-4.765 4.606-.688 6.938l21.814 12.465c.512.291 1.318.254 1.801-.084l43.364-30.33c2.416-1.688 2.61-1.447.434.542l-36.71 33.547c-.522.479-.447 1.148.167 1.499l31.796 18.169c2.548 1.457 5.293.34 6.099-2.482l18.121-63.423c.968-3.388-.976-5.248-4.315-4.135z" fill="#000"/></g></svg>