<svg width="256" height="256" viewBox="0 0 256 256" xmlns="http://www.w3.org/2000/svg"><g fill="none" fill-rule="evenodd"><circle fill="#333" cx="128" cy="128" r="86.5069124"/><path d="M114.287214.57142857h27.425572c2.006749 0 3.344582 1.33783277 4.013498 2.67566554l6.689164 25.41882269c10.033746 2.6756655 19.398575 6.0202474 28.094488 11.3715785l22.743157-12.7094113c1.337833-.6689164 3.344582-.6689164 4.682415.6689164l19.398575 19.3985752c1.337833 1.3378327 2.006749 3.3445819.668917 4.6824147l-12.040495 23.4120734c4.682414 8.0269967 8.695913 17.3918261 11.371578 27.4255723l24.749907 7.35808c2.006749.668916 3.344581 2.006749 3.344581 4.013498v27.425572c0 2.006749-1.337832 3.344582-3.344581 4.013498l-24.749907 6.689164c-2.675665 10.033746-6.689164 19.398575-11.371578 28.094488L228.003 203.253093c1.337832 1.337833.668916 3.344582-.668917 4.682415l-19.398575 19.398575c-1.337833 1.337833-3.344582 2.006749-4.682415.668917l-22.743157-12.040495c-8.695913 4.682414-18.060742 8.695913-28.094488 11.371578l-6.689164 24.749907c-.668916 2.006749-2.006749 3.344581-4.013498 3.344581h-27.425572c-2.006749 0-3.344582-1.337832-4.013498-3.344581l-7.35808-24.749907c-10.0337462-2.675665-19.3985756-6.689164-27.4255723-11.371578L52.0779903 228.003c-1.3378328 1.337832-3.344582.668916-4.6824147-.668917l-19.3985752-19.398575c-1.3378328-1.337833-1.3378328-3.344582-.6689164-4.682415l12.7094113-22.743157c-5.3513311-8.695913-8.695913-18.060742-11.3715785-28.094488l-25.41882269-6.689164c-1.33783277-.668916-2.67566554-2.006749-2.67566554-4.013498v-27.425572c0-2.006749 1.33783277-3.344582 2.67566554-4.013498l25.41882269-7.35808c2.6756655-10.0337462 6.0202474-19.3985756 11.3715785-27.4255723L27.328084 52.0779903c-.6689164-1.3378328-.6689164-3.344582.6689164-4.6824147l19.3985752-19.3985752c1.3378327-1.3378328 3.3445819-1.3378328 4.6824147-.6689164l23.4120734 12.7094113c8.0269967-5.3513311 17.3918261-8.695913 27.4255723-11.3715785l7.35808-25.41882269c.668916-1.33783277 2.006749-2.67566554 4.013498-2.67566554zm13.378328 44.81739783c46.15523 0 82.945632 36.7904012 82.945632 82.2767156 0 46.15523-36.790402 82.945632-82.945632 82.945632-45.4863144 0-82.2767156-36.790402-82.2767156-82.945632 0-45.4863144 36.7904012-82.2767156 82.2767156-82.2767156z" fill="#333"/><path d="M124.064534 157.777214l-16.349788-9.343411c-.723171-.416442-1.310673-.074322-1.310673.760922v21.003797h-.002359c0 5.539982 2.950488 6.632406 6.556903 2.427871l11.378433-13.26953c.454194-.527336.330323-1.23635-.272516-1.579649z" fill="#FFED00"/><path d="M168.037456 88.7777327L71.4381567 120.977106c-5.2568479 1.753069-5.6213825 5.433806-.8116498 8.184922l25.7344885 14.705253c.6040184.3433 1.5548756.29965 2.124682-.099097l51.1575296-35.781013c2.850212-1.991374 3.079079-1.70706.512.63941l-43.307649 39.576184c-.615816.565088-.527337 1.354323.197013 1.768406l37.510489 21.434396c3.005935 1.718857 6.244276.401106 7.195134-2.928074l21.377769-74.8216036c1.141972-3.9969032-1.15141-6.1911889-5.090507-4.8781567z" fill="#FFED00"/></g></svg>